<?xml version="1.0" encoding="utf-8"?>
<!-- Svg Vector Icons : http://www.onlinewebfonts.com/icon -->
<!DOCTYPE svg PUBLIC "-//W3C//DTD SVG 1.1//EN" "http://www.w3.org/Graphics/SVG/1.1/DTD/svg11.dtd">
<svg version="1.1" xmlns="http://www.w3.org/2000/svg" xmlns:xlink="http://www.w3.org/1999/xlink" x="0px" y="0px" viewBox="0 0 1000 1000" enable-background="new 0 0 1000 1000" xml:space="preserve">
<metadata> Svg Vector Icons : http://www.onlinewebfonts.com/icon </metadata>
<g><g transform="translate(0.000000,511.000000) scale(0.100000,-0.100000)"><path d="M3794.5,4708.6v-299.3l-315.9-6.2l-318-6.2V2266.3V135.8h737.9h737.9l6.2,318l6.2,315.9H5000h351.3l6.2-315.9l6.2-318h737.9h737.9v2130.5v2130.5l-315.9,6.2l-318,6.2v299.3V5010H5000H3794.5V4708.6z M4293.3,3534.2v-291h-291h-291v276.4c0,153.8,6.2,284.8,14.6,291c6.2,8.3,137.2,14.6,291,14.6h276.4V3534.2z M5291,3534.2v-291h-291h-291v291v291h291h291V3534.2z M6284.5,3530.1l6.2-286.8h-293.1h-291v291v293.1l286.8-6.2l284.8-6.2L6284.5,3530.1z M4293.3,2536.5v-291h-291h-291V2522c0,153.8,6.2,284.8,14.6,291c6.2,8.3,137.2,14.6,291,14.6h276.4V2536.5z M5291,2536.5v-291h-291h-291v291v291h291h291V2536.5z M6284.5,2532.4l6.2-286.8h-293.1h-291v291v293.1l286.8-6.2l284.8-6.2L6284.5,2532.4z M4293.3,1538.9v-291h-291h-291v291v291h291h291V1538.9z M5291,1538.9v-291h-291h-291v291v291h291h291V1538.9z M6288.7,1538.9v-291h-291h-291v291v291h291h291V1538.9z"/><path d="M473,1669.8l6.2-1533.9l1118.2-6.2l1116.2-4.2v1538.1v1538.1H1591.2H468.8L473,1669.8z M1424.9,2495v-293.1l-284.8,6.2l-286.8,6.2l-6.2,286.8l-6.2,284.8h293.1h291V2495z M2339.5,2495v-291h-280.6h-280.6v291v291h280.6h280.6V2495z M1424.9,1590.8v-280.6h-291h-291v280.6v280.6h291h291V1590.8z M2339.5,1590.8v-280.6h-280.6h-280.6v280.6v280.6h280.6h280.6V1590.8z"/><path d="M7286.4,1663.6V125.4l1118.2,4.2l1116.2,6.2l6.2,1533.9l4.2,1531.9H8408.8H7286.4V1663.6z M8238.4,2501.2l-6.2-286.8l-284.8-6.2l-286.8-6.2V2495v291h291h293.1L8238.4,2501.2z M9157.1,2495v-293.1l-284.8,6.2l-286.8,6.2l-6.2,286.8L8573,2786h293.1h291V2495z M8242.5,1590.8v-280.6h-291h-291v280.6v280.6h291h291V1590.8z M9157.1,1590.8v-280.6h-291h-291v280.6v280.6h291h291V1590.8z"/><path d="M477.1-146.8c-18.7-33.3,8.3-505.1,45.7-767c212-1475.8,1151.5-2766.5,2492.2-3421.2c430.3-207.9,860.5-342.9,1340.7-415.7c328.4-52,962.3-52,1288.7-2.1c2111.8,324.3,3685.2,2001.6,3866.1,4119.6c12.5,149.6,20.8,322.2,16.6,384.5l-6.2,114.3l-4514.6,6.2C1703.5-126,487.5-130.2,477.1-146.8z M2825.9-627c37.4-540.4,172.5-1197.2,343-1650.4c47.8-122.6,83.1-224.5,79-226.6c-2.1-2.1-56.1-24.9-118.5-49.9c-195.4-83.1-500.9-245.3-704.6-376.2l-195.4-126.8l-81.1,79c-116.4,110.2-301.4,340.9-426.1,525.9c-361.7,540.4-594.4,1209.7-642.3,1847.8L1065.4-415h873h873L2825.9-627z M4854.5-1294.2v-881.3l-214.1-12.5c-259.8-16.6-644.3-81.1-904.2-151.7c-106-27.1-199.5-45.7-209.9-41.6c-31.2,18.7-224.5,634-280.6,889.6c-64.4,282.7-108.1,588.2-128.9,875.1L3102.3-415h877.1h875.1V-1294.2z M6891.5-481.5c0-280.6-89.4-862.6-189.1-1243c-64.4-239-195.4-617.3-226.6-652.7c-10.4-8.3-126.8,10.4-264,45.7c-349.2,89.4-739.9,149.6-966.5,149.6h-99.8v883.4V-415h873h873V-481.5z M8928.4-512.7c0-162.1-58.2-515.5-122.6-762.8c-116.4-442.7-295.1-833.5-565.4-1228.4c-133-195.4-413.6-532.1-453.1-546.6c-10.4-4.2-106,52-212,122.6c-199.6,128.9-750.4,413.6-804.4,413.6c-20.8,0-25,12.5-14.6,37.4c8.3,18.7,56.1,149.7,106,291c166.3,469.8,261.9,920.8,303.5,1450.8l24.9,320.1h868.8h868.8V-512.7z M4854.5-3335.3c0-473.9-6.2-862.6-12.5-862.6c-35.3,0-324.3,282.7-498.8,484.3c-228.6,266.1-440.6,571.6-588.2,848l-108.1,201.6l162.1,43.7c259.8,68.6,698.4,137.2,927,143.4l118.5,4.2V-3335.3z M5748.3-2526.7c193.3-33.3,579.9-122.6,596.5-141.4c27-27-320.1-586.1-550.8-885.4c-139.3-180.8-590.3-644.4-627.7-644.4c-12.5,0-20.8,305.5-20.8,864.7v866.8l203.7-14.6C5459.4-2487.3,5640.2-2508,5748.3-2526.7z M3684.3-3322.8c114.3-178.8,338.8-473.9,503-654.7c81.1-91.4,143.4-168.3,139.3-172.5c-4.2-4.2-133,24.9-288.9,64.4c-347.1,89.4-679.7,222.4-974.8,390.8c-228.6,128.9-579.9,382.4-592.4,426.1c-14.5,41.6,409.5,288.9,740,434.4l155.9,66.5l122.6-218.3C3555.4-3108.7,3642.7-3258.4,3684.3-3322.8z M6964.2-2919.6c307.6-149.6,577.8-315.9,565.4-351.3c-12.5-41.6-365.8-295.1-592.4-424c-295.2-168.4-627.7-301.4-974.8-390.8c-155.9-39.5-284.8-68.6-288.9-64.4c-4.2,4.2,58.2,81.1,141.3,172.5c276.4,307.7,627.7,821,777.4,1134.9C6633.7-2753.3,6608.8-2749.1,6964.2-2919.6z"/></g></g>
</svg>