<?xml version="1.0" encoding="iso-8859-1"?>

<!DOCTYPE svg PUBLIC "-//W3C//DTD SVG 1.1//EN" "http://www.w3.org/Graphics/SVG/1.1/DTD/svg11.dtd">
<!-- Uploaded to: SVG Repo, www.svgrepo.com, Generator: SVG Repo Mixer Tools -->
<svg version="1.1" id="_x34_" xmlns="http://www.w3.org/2000/svg" xmlns:xlink="http://www.w3.org/1999/xlink" 
	 viewBox="0 0 512 512"  xml:space="preserve">
<g>
	<g>
		<g>
			<rect x="0.027" y="92.503" style="fill:#C77F24;" width="466.529" height="309.398"/>
			<g style="opacity:0.2;">
				<g>
					<g>
						<rect y="400.165" style="fill:#191919;" width="466.584" height="1.746"/>
					</g>
					<g>
						<rect x="0.027" y="297.584" style="fill:#191919;" width="466.529" height="11.118"/>
					</g>
					<g>
						<rect x="318.895" y="303.143" style="fill:#191919;" width="13.497" height="98.768"/>
					</g>
					<g>
						<rect x="138.376" y="303.143" style="fill:#191919;" width="13.497" height="98.768"/>
					</g>
					<g>
						<rect x="0.027" y="297.584" style="fill:#191919;" width="466.529" height="11.118"/>
					</g>
					<g>
						<rect x="0.027" y="195.044" style="fill:#191919;" width="466.529" height="11.041"/>
					</g>
					<g>
						<rect x="408.327" y="200.568" style="fill:#191919;" width="13.497" height="102.566"/>
					</g>
					<g>
						<rect x="227.808" y="200.568" style="fill:#191919;" width="13.497" height="102.566"/>
					</g>
					<g>
						<rect x="47.288" y="200.568" style="fill:#191919;" width="13.497" height="102.566"/>
					</g>
				</g>
				<g>
					<g>
						<rect x="0.027" y="195.044" style="fill:#191919;" width="466.529" height="11.041"/>
					</g>
					<g>
						<rect y="92.467" style="fill:#191919;" width="466.584" height="11.088"/>
					</g>
					<g>
						<rect x="318.911" y="98.002" style="fill:#191919;" width="13.497" height="102.566"/>
					</g>
					<g>
						<rect x="138.391" y="98.002" style="fill:#191919;" width="13.497" height="102.566"/>
					</g>
					<g>
						<rect y="92.467" style="fill:#191919;" width="466.584" height="11.088"/>
					</g>
					<g>
						<rect x="408.311" y="92.467" style="fill:#191919;" width="13.497" height="5.544"/>
					</g>
					<g>
						<rect x="227.792" y="92.467" style="fill:#191919;" width="13.497" height="5.544"/>
					</g>
					<g>
						<rect x="47.272" y="92.467" style="fill:#191919;" width="13.497" height="5.544"/>
					</g>
				</g>
			</g>
		</g>
		<linearGradient id="SVGID_1_" gradientUnits="userSpaceOnUse" x1="0.0272" y1="46.2513" x2="466.556" y2="46.2513">
			<stop  offset="0" style="stop-color:#D69650"/>
			<stop  offset="1" style="stop-color:#CE8D39"/>
		</linearGradient>
		<polygon style="fill:url(#SVGID_1_);" points="466.556,92.503 0.027,92.503 66.972,0 399.611,0 426.096,36.599 		"/>
	</g>
	<polygon style="opacity:0.07;fill:#040000;" points="426.096,36.599 414.152,20.094 32.336,401.91 138.376,401.91 151.872,401.91 
		318.895,401.91 332.392,401.91 466.584,401.91 466.584,400.165 466.556,400.165 466.556,308.703 466.556,297.584 466.556,206.085 
		466.556,195.044 466.556,103.555 466.584,103.555 466.584,92.467 466.53,92.467 	"/>
	<g>
		<g>
			<path style="fill:#CC383D;" d="M443.182,177.502c0.944,3.52,19.838,43.22,7.794,63.767
				c-8.613,14.696-25.055,20.813-42.511,11.336c-16.531-8.975-16.282-31.548-2.126-51.013c11.336-15.587,27.256-51.113-5.904-68.488
				c5.668,13.199-11.571,36.76-35.19,61.403c-16.468,17.179-64.475,49.596-63.703,123.26
				c0.614,58.602,47.319,103.147,105.92,103.147c58.602,0,103.053-47.783,104.445-102.378
				C513.325,262.997,498.684,199.704,443.182,177.502z"/>
			<path style="fill:#EA5755;" d="M506.581,260.443c-8.251-36.126-27.001-68.38-63.399-82.941c0.944,3.52,19.838,43.22,7.794,63.767
				c-8.613,14.696-25.055,20.813-42.511,11.336c-16.531-8.975-16.282-31.548-2.126-51.013c11.336-15.587,27.256-51.113-5.904-68.488
				c5.668,13.199-11.571,36.76-35.19,61.403c-16.468,17.179-64.475,49.596-63.703,123.26c0.03,3,0.263,5.934,0.529,8.856
				c16.91,4.356,35.055,6.753,53.963,6.753C423.332,333.376,481.151,303.377,506.581,260.443z"/>
		</g>
		<path style="fill:#E8CC72;" d="M407.368,388.902c-37.385,0-65.864-27.466-66.246-63.885c-0.283-27.115,8.292-46.231,19.1-60.8
			c5.9,13.919,16.711,25.064,31.158,31.908c12.394,5.873,24.013,8.726,35.52,8.726c10.509-0.003,23.777-2.668,39.569-17.466
			c6.615,17.287,5.95,34.072,5.915,34.408C472.383,321.792,474.027,388.902,407.368,388.902z"/>
	</g>
</g>
</svg>