<?xml version="1.0" encoding="UTF-8" standalone="no"?>
<svg xmlns:dc="http://purl.org/dc/elements/1.1/" xmlns:cc="http://creativecommons.org/ns#" xmlns:rdf="http://www.w3.org/1999/02/22-rdf-syntax-ns#" xmlns:svg="http://www.w3.org/2000/svg" xmlns="http://www.w3.org/2000/svg" xmlns:sodipodi="http://sodipodi.sourceforge.net/DTD/sodipodi-0.dtd" xmlns:inkscape="http://www.inkscape.org/namespaces/inkscape" version="1.0" x="0px" y="0px" viewBox="0 0 112.8983 109.03746" enable-background="new 0 0 100 100" xml:space="preserve" id="svg22" sodipodi:docname="noun_342946_cc.svg" width="112.8983" height="109.03746" inkscape:version="0.92.1 r15371"><metadata id="metadata28"><rdf:RDF><cc:Work rdf:about=""><dc:format>image/svg+xml</dc:format><dc:type rdf:resource="http://purl.org/dc/dcmitype/StillImage"/><dc:title/></cc:Work></rdf:RDF></metadata><defs id="defs26"/><sodipodi:namedview pagecolor="#ffffff" bordercolor="#666666" borderopacity="1" objecttolerance="10" gridtolerance="10" guidetolerance="10" inkscape:pageopacity="0" inkscape:pageshadow="2" inkscape:window-width="640" inkscape:window-height="480" id="namedview24" showgrid="false" fit-margin-top="10" fit-margin-left="10" fit-margin-right="10" fit-margin-bottom="10" inkscape:zoom="1.888" inkscape:cx="56.449153" inkscape:cy="43.588311" inkscape:window-x="0" inkscape:window-y="0" inkscape:window-maximized="0" inkscape:current-layer="svg22"/><g id="g16" transform="matrix(1.5745475,0,0,1.6147773,-22.278224,-28.754655)"><g id="g14"><path d="m 70.597656,65.374512 c -0.193359,-0.181153 -0.443359,-0.27295 -0.717773,-0.268555 -0.264649,0.0093 -0.515625,0.123535 -0.696289,0.317383 l -5.807617,6.225586 c -0.376954,0.403808 -0.354493,1.036621 0.04883,1.413086 l 6.225586,5.808105 c 0.185546,0.17334 0.429687,0.269043 0.682617,0.269043 0.01172,0 0.02344,0 0.03516,-4.88e-4 0.264648,-0.0093 0.515625,-0.123535 0.696289,-0.317383 l 5.807617,-6.225586 c 0.376953,-0.403809 0.354493,-1.036621 -0.04883,-1.413086 z m -0.313476,11.351074 -4.763672,-4.44336 4.443359,-4.763183 4.763672,4.443359 z" id="path2" inkscape:connector-curvature="0"/><path d="m 33.040039,65.943359 c -3.329102,0 -6.038086,2.708497 -6.038086,6.038086 0,3.32959 2.708985,6.038086 6.038086,6.038086 3.329102,0 6.038086,-2.708496 6.038086,-6.038086 0,-3.329589 -2.708984,-6.038086 -6.038086,-6.038086 z m 0,10.076172 c -2.226562,0 -4.038086,-1.811523 -4.038086,-4.038086 0,-2.226562 1.811524,-4.038086 4.038086,-4.038086 2.226563,0 4.038086,1.811524 4.038086,4.038086 0,2.226563 -1.811523,4.038086 -4.038086,4.038086 z" id="path4" inkscape:connector-curvature="0"/><path d="m 63,34 c 2.756836,0 5,-2.243164 5,-5 0,-2.756836 -2.243164,-5 -5,-5 -2.756836,0 -5,2.243164 -5,5 0,2.756836 2.243164,5 5,5 z m 0,-8 c 1.654297,0 3,1.345703 3,3 0,1.654297 -1.345703,3 -3,3 -1.654297,0 -3,-1.345703 -3,-3 0,-1.654297 1.345703,-3 3,-3 z" id="path6" inkscape:connector-curvature="0"/><path d="m 37,34 c 2.756836,0 5,-2.243164 5,-5 0,-2.756836 -2.243164,-5 -5,-5 -2.756836,0 -5,2.243164 -5,5 0,2.756836 2.243164,5 5,5 z m 0,-8 c 1.654297,0 3,1.345703 3,3 0,1.654297 -1.345703,3 -3,3 -1.654297,0 -3,-1.345703 -3,-3 0,-1.654297 1.345703,-3 3,-3 z" id="path8" inkscape:connector-curvature="0"/><path d="m 76.367187,48 c 0.03906,-0.323731 0.06445,-0.652344 0.06445,-0.988281 0.0029,-3.353516 -1.054688,-5.983399 -3.143555,-7.816895 -2.84375,-2.496582 -7.541016,-3.395508 -13.584961,-2.603027 -3.847656,0.505371 -6.552734,2.770508 -7.822266,6.550293 C 51.370117,44.655762 51.139648,46.253418 51.154297,48 h -2.960938 c 0.341797,-2.833984 0.430664,-6.224609 -1.729492,-8.850586 -1.754883,-2.130371 -4.887695,-3.124023 -9.555664,-3.064941 -2.838867,0.0415 -6.883789,0.40625 -9.222656,3.080566 C 25.766602,41.36084 24.269531,44.958984 24.457031,48 H 20.5 v 2 h 4.375 c 0.732422,2.019531 1.880859,4.040527 3.180664,5.566895 1.139648,1.338378 2.535156,2.750976 4.254883,3.081542 0.254883,0.04883 0.487305,0.07031 0.700195,0.07031 0.780274,0 1.294922,-0.286133 1.610352,-0.560059 0.397461,-0.346191 0.857422,-1.010742 0.794922,-2.211425 C 35.328125,54.281738 33.871094,51.748047 32.729492,50 h 8.254883 l 0.0049,0.02588 -0.680664,5.598633 -3.59961,3.857422 c -0.376953,0.403808 -0.354492,1.036621 0.04883,1.413085 l 6.225586,5.808594 c 0.19336,0.180176 0.438477,0.269043 0.682617,0.269043 0.267579,0 0.53418,-0.106933 0.731446,-0.317871 L 50.206074,60.4292 c 0.376953,-0.403808 0.354492,-1.036621 -0.04883,-1.413086 L 46.431641,55.540039 C 47.297852,53.208496 47.745117,50.958008 47.911133,50 h 3.514648 c 0.510742,2.04834 1.697266,5.11084 3.228516,7.104492 -0.56836,0.878418 -0.902344,1.922364 -0.902344,3.043945 0,3.09961 2.521484,5.621094 5.621094,5.621094 3.099609,0 5.621094,-2.521484 5.621094,-5.621094 0,-2.675781 -1.88086,-4.916992 -4.388672,-5.480957 C 60.398437,54.089844 60.091797,53.56543 59.833008,53.130859 59.652344,52.825684 59.47168,52.527344 59.34082,52.234863 L 58.344727,50 h 10.305664 c -1,1.732422 -2.382813,4.338867 -2.666992,5.952148 -0.207032,1.180664 0.320312,1.851075 0.652343,2.145996 0.695313,0.615723 1.805664,0.773926 2.966797,0.421387 2.201172,-0.66748 3.40918,-2.852539 4.379883,-4.60791 0.124023,-0.224609 0.245117,-0.443359 0.364258,-0.651856 C 74.910156,52.274414 75.488281,51.185059 75.894531,50 H 79.5 v -2 z m -28.305664,11.795898 -4.444336,4.763184 -4.763671,-4.443848 2.373046,-2.542968 c 0.617188,0.537597 1.54004,1.121582 2.572266,0.988281 0.505859,-0.0669 1.164063,-0.331055 1.735352,-1.122559 z m -3.225586,-5.744629 c -0.185546,0.555665 -0.394531,1.124024 -0.631835,1.684082 -0.0498,0.117188 -0.101563,0.222168 -0.154297,0.317872 -0.171875,0.311523 -0.353516,0.502929 -0.510743,0.524414 -0.25,0.02637 -0.617187,-0.19043 -0.948242,-0.467774 -0.102539,-0.08594 -0.203125,-0.176758 -0.293945,-0.269043 l 0.323242,-2.658203 0.373047,-3.062012 c 0.0049,-0.04004 -0.0029,-0.08057 -0.0029,-0.120605 0,-0.05713 0.0049,-0.114746 -0.0049,-0.171387 L 42.666992,48 41.985352,44.078613 c -0.09473,-0.543945 -0.614258,-0.905761 -1.15625,-0.813965 -0.544922,0.09473 -0.90918,0.612794 -0.814454,1.156739 L 40.636719,48 h -8.650391 l 1.264649,-2.937988 c 0.21875,-0.507325 -0.01465,-1.095215 -0.522461,-1.313965 -0.506836,-0.219238 -1.09668,0.01563 -1.313477,0.522949 L 29.808594,48 29.682617,48.292481 c -0.141601,0.328613 -0.09766,0.707519 0.117188,0.99414 0.161132,0.21582 0.335937,0.45752 0.515625,0.713379 1.331054,1.895508 3.033203,4.722656 3.102539,6.052246 0.01758,0.331543 -0.04297,0.539063 -0.110352,0.598145 -0.05469,0.04687 -0.24707,0.104492 -0.61914,0.03418 C 31.577148,56.470703 30.493164,55.344238 29.579102,54.270508 28.573242,53.089844 27.679687,51.566894 27.029297,50 26.914062,49.722656 26.791016,49.446777 26.693359,49.168457 26.567383,48.80957 26.501953,48.412598 26.467773,48 c -0.204101,-2.444824 1.088868,-5.646973 2.723633,-7.518555 1.8125,-2.07373 5.289063,-2.361328 7.746094,-2.396972 4.032227,-0.06445 6.639648,0.705566 7.981445,2.335937 1.620117,1.969727 1.606446,4.674805 1.254883,7.57959 -0.0498,0.407227 -0.105469,0.817871 -0.164062,1.231445 -9.77e-4,0.0098 -0.04395,0.29834 -0.131836,0.768555 -0.165039,0.87793 -0.495118,2.40918 -1.041993,4.051269 z m 18.158204,6.097168 c 0,1.996583 -1.624024,3.621094 -3.621094,3.621094 -1.997071,0 -3.621094,-1.624511 -3.621094,-3.621094 0,-0.572753 0.145508,-1.106933 0.382813,-1.588867 0.276367,0.186035 0.558593,0.335449 0.846679,0.423828 0.207032,0.06348 0.47168,0.117188 0.773438,0.117188 0.71582,0 1.642578,-0.303223 2.506836,-1.5 0.198242,-0.275879 0.321289,-0.549805 0.414062,-0.821289 1.352539,0.524902 2.31836,1.832519 2.31836,3.36914 z m 9.616211,-7.881347 c -0.123047,0.21582 -0.249024,0.443359 -0.37793,0.676758 -0.837891,1.51416 -1.786133,3.22998 -3.209961,3.661621 -0.557617,0.16748 -0.964844,0.07959 -1.05957,-0.0044 -0.02246,-0.01953 -0.04004,-0.126953 -0.0088,-0.303223 C 68.21875,54.790527 69.963867,51.675293 70.974609,50 c 0.153321,-0.253906 0.291016,-0.476563 0.402344,-0.653809 0.152344,-0.242187 0.194336,-0.538085 0.114258,-0.812988 L 71.335937,48 70.272461,44.345703 C 70.118164,43.816406 69.5625,43.506348 69.033203,43.665039 68.50293,43.819336 68.198242,44.374023 68.352539,44.904297 L 69.25293,48 H 58.612305 l 0.623047,-3.578613 c 0.09473,-0.543946 -0.269532,-1.062012 -0.814454,-1.156739 -0.544921,-0.09131 -1.060546,0.27002 -1.15625,0.813965 L 56.583008,48 l -0.31836,1.828613 c -0.0098,0.05713 -0.0039,0.114258 -0.0039,0.171387 0,0.139648 0.01855,0.27832 0.07617,0.407227 l 1.177734,2.642578 c 0.169922,0.379394 0.388672,0.747558 0.59961,1.103027 0.100586,0.168457 0.188476,0.321289 0.269531,0.466797 0.46875,0.841308 0.606445,1.324219 0.25586,1.811035 -0.06348,0.08789 -0.123047,0.160156 -0.180665,0.227539 -0.46582,0.539063 -0.758789,0.454102 -0.891601,0.413086 -0.01465,-0.0044 -0.0293,-0.01465 -0.04395,-0.01953 -0.491211,-0.170899 -1.006836,-0.69043 -1.504883,-1.40332 C 54.955078,54.127441 53.970703,51.736328 53.479492,50 53.28418,49.308106 53.163086,48.714844 53.151367,48.330566 c -0.0039,-0.113281 0.0039,-0.219238 0.0029,-0.330566 -0.01563,-1.527832 0.182617,-2.915527 0.62207,-4.220215 1.024414,-3.049316 3.106445,-4.800293 6.186524,-5.20459 3.805664,-0.5 8.976562,-0.536621 12.005859,2.122559 1.636719,1.436523 2.464844,3.560547 2.462891,6.3125 0,0.335937 -0.03613,0.664551 -0.08692,0.989746 -0.108398,0.688965 -0.315429,1.354981 -0.583984,2 -0.326172,0.783691 -0.734375,1.538574 -1.15039,2.26709 z" id="path10" inkscape:connector-curvature="0"/><path d="m 52.192383,67.977051 c -0.196289,-0.297364 -0.518555,-0.470703 -0.894532,-0.446777 -0.356445,0.02148 -0.674804,0.231445 -0.833984,0.551269 l -4.573242,9.155762 c -0.160156,0.319336 -0.136719,0.700195 0.06055,0.998047 0.185547,0.28125 0.499023,0.44873 0.833984,0.44873 0.01953,0 0.04004,-4.88e-4 0.06055,-0.002 l 10.21582,-0.617187 c 0.356446,-0.02148 0.674805,-0.231446 0.833985,-0.55127 0.160156,-0.319336 0.136719,-0.700195 -0.06055,-0.998047 z m -3.738281,8.604492 3.02539,-6.056641 3.732422,5.648438 z" id="path12" inkscape:connector-curvature="0"/></g></g></svg>